<svg id="visual" viewBox="0 0 900 600" width="900" height="600" xmlns="http://www.w3.org/2000/svg" xmlns:xlink="http://www.w3.org/1999/xlink" version="1.1"><path d="M0 31L82 31L164 31L245 31L327 31L409 31L491 31L573 31L655 31L736 31L818 31L900 31L900 0L818 0L736 0L655 0L573 0L491 0L409 0L327 0L245 0L164 0L82 0L0 0Z" fill="#3b82f6"></path><path d="M0 85L82 85L164 91L245 91L327 85L409 91L491 91L573 85L655 85L736 85L818 85L900 91L900 29L818 29L736 29L655 29L573 29L491 29L409 29L327 29L245 29L164 29L82 29L0 29Z" fill="#0087ed"></path><path d="M0 127L82 127L164 133L245 133L327 127L409 133L491 133L573 127L655 127L736 127L818 127L900 133L900 89L818 83L736 83L655 83L573 83L491 89L409 89L327 83L245 89L164 89L82 83L0 83Z" fill="#008be2"></path><path d="M0 247L82 235L164 259L245 247L327 241L409 241L491 247L573 253L655 253L736 247L818 235L900 253L900 131L818 125L736 125L655 125L573 125L491 131L409 131L327 125L245 131L164 131L82 125L0 125Z" fill="#008dd6"></path><path d="M0 277L82 265L164 289L245 277L327 271L409 271L491 277L573 283L655 283L736 277L818 265L900 283L900 251L818 233L736 245L655 251L573 251L491 245L409 239L327 239L245 245L164 257L82 233L0 245Z" fill="#008ec8"></path><path d="M0 355L82 349L164 361L245 349L327 343L409 349L491 355L573 355L655 355L736 355L818 337L900 355L900 281L818 263L736 275L655 281L573 281L491 275L409 269L327 269L245 275L164 287L82 263L0 275Z" fill="#008ebb"></path><path d="M0 391L82 385L164 397L245 385L327 379L409 385L491 391L573 391L655 391L736 391L818 373L900 391L900 353L818 335L736 353L655 353L573 353L491 353L409 347L327 341L245 347L164 359L82 347L0 353Z" fill="#008dab"></path><path d="M0 439L82 433L164 445L245 427L327 421L409 427L491 439L573 439L655 439L736 439L818 421L900 439L900 389L818 371L736 389L655 389L573 389L491 389L409 383L327 377L245 383L164 395L82 383L0 389Z" fill="#008a9a"></path><path d="M0 469L82 463L164 475L245 463L327 457L409 463L491 469L573 475L655 469L736 475L818 457L900 469L900 437L818 419L736 437L655 437L573 437L491 437L409 425L327 419L245 425L164 443L82 431L0 437Z" fill="#008786"></path><path d="M0 601L82 601L164 601L245 601L327 601L409 601L491 601L573 601L655 601L736 601L818 601L900 601L900 467L818 455L736 473L655 467L573 473L491 467L409 461L327 455L245 461L164 473L82 461L0 467Z" fill="#038373"></path></svg>