<svg id="visual" viewBox="0 0 900 600" width="900" height="600" xmlns="http://www.w3.org/2000/svg" xmlns:xlink="http://www.w3.org/1999/xlink" version="1.1"><rect x="0" y="0" width="900" height="600" fill="#002233"></rect><path d="M0 488L21.5 487.8C43 487.7 86 487.3 128.8 492.8C171.7 498.3 214.3 509.7 257.2 515.2C300 520.7 343 520.3 385.8 496.7C428.7 473 471.3 426 514.2 425.7C557 425.3 600 471.7 642.8 476.7C685.7 481.7 728.3 445.3 771.2 428C814 410.7 857 412.3 878.5 413.2L900 414L900 601L878.5 601C857 601 814 601 771.2 601C728.3 601 685.7 601 642.8 601C600 601 557 601 514.2 601C471.3 601 428.7 601 385.8 601C343 601 300 601 257.2 601C214.3 601 171.7 601 128.8 601C86 601 43 601 21.5 601L0 601Z" fill="#3B82F6" stroke-linecap="round" stroke-linejoin="miter"></path></svg>