<svg id="visual" viewBox="0 0 900 600" width="900" height="600" xmlns="http://www.w3.org/2000/svg" xmlns:xlink="http://www.w3.org/1999/xlink" version="1.1"><rect x="0" y="0" width="900" height="600" fill="#FFFFFF"></rect><path d="M0 459L16.7 462.2C33.3 465.3 66.7 471.7 100 471.8C133.3 472 166.7 466 200 453.3C233.3 440.7 266.7 421.3 300 413C333.3 404.7 366.7 407.3 400 415C433.3 422.7 466.7 435.3 500 437.2C533.3 439 566.7 430 600 436.8C633.3 443.7 666.7 466.3 700 469.2C733.3 472 766.7 455 800 441C833.3 427 866.7 416 883.3 410.5L900 405L900 601L883.3 601C866.7 601 833.3 601 800 601C766.7 601 733.3 601 700 601C666.7 601 633.3 601 600 601C566.7 601 533.3 601 500 601C466.7 601 433.3 601 400 601C366.7 601 333.3 601 300 601C266.7 601 233.3 601 200 601C166.7 601 133.3 601 100 601C66.7 601 33.3 601 16.7 601L0 601Z" fill="#002233" stroke-linecap="round" stroke-linejoin="miter"></path></svg>