<svg id="visual" viewBox="0 0 900 600" width="900" height="600" xmlns="http://www.w3.org/2000/svg" xmlns:xlink="http://www.w3.org/1999/xlink" version="1.1"><rect x="0" y="0" width="900" height="600" fill="#0066FF"></rect><path d="M0 423L21.5 414.8C43 406.7 86 390.3 128.8 391.7C171.7 393 214.3 412 257.2 420.3C300 428.7 343 426.3 385.8 425.5C428.7 424.7 471.3 425.3 514.2 415C557 404.7 600 383.3 642.8 386C685.7 388.7 728.3 415.3 771.2 420.7C814 426 857 410 878.5 402L900 394L900 601L878.5 601C857 601 814 601 771.2 601C728.3 601 685.7 601 642.8 601C600 601 557 601 514.2 601C471.3 601 428.7 601 385.8 601C343 601 300 601 257.2 601C214.3 601 171.7 601 128.8 601C86 601 43 601 21.5 601L0 601Z" fill="#1d4ed8"></path><path d="M0 403L21.5 412.3C43 421.7 86 440.3 128.8 441.2C171.7 442 214.3 425 257.2 428C300 431 343 454 385.8 454C428.7 454 471.3 431 514.2 417.5C557 404 600 400 642.8 398.7C685.7 397.3 728.3 398.7 771.2 409C814 419.3 857 438.7 878.5 448.3L900 458L900 601L878.5 601C857 601 814 601 771.2 601C728.3 601 685.7 601 642.8 601C600 601 557 601 514.2 601C471.3 601 428.7 601 385.8 601C343 601 300 601 257.2 601C214.3 601 171.7 601 128.8 601C86 601 43 601 21.5 601L0 601Z" fill="#2a6ee6"></path><path d="M0 495L21.5 494.2C43 493.3 86 491.7 128.8 491.7C171.7 491.7 214.3 493.3 257.2 484.8C300 476.3 343 457.7 385.8 458.3C428.7 459 471.3 479 514.2 479.3C557 479.7 600 460.3 642.8 458C685.7 455.7 728.3 470.3 771.2 481.8C814 493.3 857 501.7 878.5 505.8L900 510L900 601L878.5 601C857 601 814 601 771.2 601C728.3 601 685.7 601 642.8 601C600 601 557 601 514.2 601C471.3 601 428.7 601 385.8 601C343 601 300 601 257.2 601C214.3 601 171.7 601 128.8 601C86 601 43 601 21.5 601L0 601Z" fill="#488cf1"></path><path d="M0 533L21.5 524.2C43 515.3 86 497.7 128.8 495C171.7 492.3 214.3 504.7 257.2 508C300 511.3 343 505.7 385.8 507.2C428.7 508.7 471.3 517.3 514.2 518.2C557 519 600 512 642.8 512C685.7 512 728.3 519 771.2 524.2C814 529.3 857 532.7 878.5 534.3L900 536L900 601L878.5 601C857 601 814 601 771.2 601C728.3 601 685.7 601 642.8 601C600 601 557 601 514.2 601C471.3 601 428.7 601 385.8 601C343 601 300 601 257.2 601C214.3 601 171.7 601 128.8 601C86 601 43 601 21.5 601L0 601Z" fill="#6ca9f8"></path><path d="M0 542L21.5 545.2C43 548.3 86 554.7 128.8 553.3C171.7 552 214.3 543 257.2 541.2C300 539.3 343 544.7 385.8 550.5C428.7 556.3 471.3 562.7 514.2 559.5C557 556.3 600 543.7 642.8 536.8C685.7 530 728.3 529 771.2 532C814 535 857 542 878.5 545.5L900 549L900 601L878.5 601C857 601 814 601 771.2 601C728.3 601 685.7 601 642.8 601C600 601 557 601 514.2 601C471.3 601 428.7 601 385.8 601C343 601 300 601 257.2 601C214.3 601 171.7 601 128.8 601C86 601 43 601 21.5 601L0 601Z" fill="#93c5fd"></path></svg>