<svg id="visual" viewBox="0 0 900 600" width="900" height="600" xmlns="http://www.w3.org/2000/svg" xmlns:xlink="http://www.w3.org/1999/xlink" version="1.1"><rect x="0" y="0" width="900" height="600" fill="#FFFAF0"></rect><path d="M0 497L18.8 498.5C37.7 500 75.3 503 112.8 507C150.3 511 187.7 516 225.2 518.5C262.7 521 300.3 521 337.8 521.3C375.3 521.7 412.7 522.3 450.2 518.7C487.7 515 525.3 507 562.8 501.7C600.3 496.3 637.7 493.7 675.2 495.8C712.7 498 750.3 505 787.8 507.8C825.3 510.7 862.7 509.3 881.3 508.7L900 508L900 601L881.3 601C862.7 601 825.3 601 787.8 601C750.3 601 712.7 601 675.2 601C637.7 601 600.3 601 562.8 601C525.3 601 487.7 601 450.2 601C412.7 601 375.3 601 337.8 601C300.3 601 262.7 601 225.2 601C187.7 601 150.3 601 112.8 601C75.3 601 37.7 601 18.8 601L0 601Z" fill="#002233" stroke-linecap="round" stroke-linejoin="miter"></path></svg>